# Blender 4.4.0
# www.blender.org
mtllib WiningFlag.mtl
o Cube
v 0.650236 1.206189 -0.013717
v -0.284918 -1.483796 -0.013717
v -0.284918 -1.483796 0.013717
v 0.610818 1.202740 -0.013717
v -0.318577 -1.470528 -0.013717
v 0.610818 1.202740 0.013717
v -0.318577 -1.470528 0.013717
v 0.278547 0.142090 -0.013717
v 0.253926 0.176192 0.013717
v 0.253926 0.176192 -0.013717
v 0.642143 1.183020 0.013717
v 0.626789 1.204137 0.013717
v 0.278547 0.142090 -0.010049
v 0.286609 0.165171 0.013717
v 0.281462 0.155235 0.010799
v 0.270840 0.119851 0.013717
v 1.377394 0.927317 0.006846
v 1.377346 0.927194 -0.005818
v 0.971594 -0.096918 0.006846
v 0.971629 -0.096828 -0.005818
v 0.598441 -0.043822 -0.005818
v 0.945762 0.968391 -0.005818
v 0.945837 0.968611 0.006846
v 0.598387 -0.043982 0.006846
v 0.746569 1.075232 -0.005818
v 0.369444 0.071557 -0.015112
v 0.389226 0.070313 -0.005818
v 0.766157 1.073824 0.008526
v 0.484717 0.003112 -0.005818
v 0.834704 1.020147 0.006846
v 0.834604 1.019856 -0.005818
v 0.484644 0.002901 0.006846
v 0.762553 -0.081284 -0.005818
v 1.084551 0.934170 0.006846
v 1.084498 0.934002 -0.005818
v 0.762515 -0.081405 0.006846
v 2.235573 0.651221 0.006846
v 2.235571 0.651214 -0.005818
v 1.898123 -0.378098 0.006846
v 1.898124 -0.378093 -0.005818
v 1.731813 -0.225781 -0.005818
v 2.089561 0.793659 -0.005818
v 2.089569 0.793684 0.006846
v 1.731806 -0.225799 0.006846
v 1.915209 0.876650 -0.005818
v 1.915223 0.876692 0.006846
v 1.565962 -0.142235 -0.005818
v 1.565952 -0.142266 0.006846
v 1.739686 0.908874 -0.005818
v 1.739708 0.908936 0.006846
v 1.376407 -0.110050 -0.005818
v 1.376391 -0.110095 0.006846
v 1.547952 0.925035 -0.005818
v 1.547983 0.925123 0.006846
v 1.187954 -0.099818 -0.005818
v 1.187931 -0.099883 0.006846
vn -0.9445 0.3284 -0.0000
vn -0.3667 -0.9303 -0.0000
vn -0.0000 -0.0000 -1.0000
vn 0.9449 -0.3275 -0.0000
vn -0.0000 -0.0000 1.0000
vn 0.0013 0.0004 1.0000
vn 0.0818 -0.0190 -0.9965
vn 0.0944 -0.0232 -0.9953
vn -0.9502 0.3115 -0.0000
vn 0.1388 -0.0489 0.9891
vn -0.0004 -0.0012 1.0000
vn 0.2167 0.9422 0.2557
vn 0.2525 0.2423 0.9368
vn 0.6753 0.7375 0.0004
vn 0.6754 0.7375 0.0014
vn 0.0542 0.9985 0.0036
vn -0.8727 0.4882 0.0004
vn -0.8727 0.4882 -0.0004
vn 0.9436 -0.3311 -0.0000
vn -0.9436 0.3311 -0.0000
vn 0.0555 -0.0319 0.9980
vn 0.1674 0.9859 0.0025
vn -0.9460 0.3243 -0.0000
vn -0.0127 -0.9999 0.0098
vn 0.0677 -0.0232 0.9974
vn 0.0572 -0.0320 0.9978
vn -0.0651 0.0356 0.9972
vn -0.9419 0.3358 -0.0000
vn 0.9419 -0.3358 -0.0000
vn 0.0541 0.9985 0.0052
vn 0.0138 0.9999 0.0051
vn -0.9435 0.3314 -0.0000
vn 0.9435 -0.3314 -0.0000
vn -0.0840 -0.9964 0.0072
vn -0.0002 -0.0123 0.9999
vn 0.9297 -0.3683 -0.0000
vn -0.9297 0.3683 -0.0000
vn -0.0020 -0.0117 0.9999
vn -0.6983 -0.7158 0.0019
vn -0.6984 -0.7157 0.0005
vn -0.4298 -0.9029 0.0035
vn -0.4299 -0.9029 0.0021
vn -0.1806 -0.9835 0.0051
vn -0.1807 -0.9835 0.0035
vn -0.0841 -0.9964 0.0050
vn 0.1673 0.9859 0.0037
vn -0.0129 -0.9999 0.0070
vn 0.0137 0.9999 0.0071
vn 0.9834 -0.1814 0.0008
vn 0.0583 -0.0108 -0.9982
vn 0.0741 0.9972 0.0073
vn -0.2406 -0.9705 0.0183
vn 0.9532 -0.3023 -0.0000
vn 0.4498 0.8931 0.0015
vn -0.2410 -0.9704 0.0138
vn -0.4201 -0.9073 0.0183
vn -0.4206 -0.9069 0.0242
vn -0.6160 -0.7874 0.0230
vn 0.0740 0.9972 0.0098
vn -0.5657 -0.3717 0.7361
vn 0.6247 0.4959 0.6031
vn -0.4476 -0.7116 0.5415
vn 0.4499 0.8931 0.0025
vn 0.0739 -0.0136 0.9972
vn 0.0737 -0.0259 0.9969
vn 0.0630 -0.0344 0.9974
vn 0.2225 0.9749 0.0100
vn 0.0843 -0.0267 0.9961
vn -0.0026 -0.0116 0.9999
vn 0.3810 0.9245 0.0133
vn -0.9459 0.3246 -0.0000
vn 0.3814 0.9242 0.0176
vn -0.0232 -0.9996 0.0133
vn -0.9456 0.3254 -0.0000
vn 0.0928 -0.0443 0.9947
vn -0.0234 -0.9997 0.0098
vn 0.2223 0.9749 0.0133
vn -0.4200 -0.9072 0.0242
vn -0.4206 -0.9070 0.0183
vn 0.6516 0.4738 0.5924
vn -0.0872 0.9962 -0.0000
vt 0.528999 0.000000
vt 0.625000 0.000000
vt 0.625000 0.250000
vt 0.528999 0.250000
vt 0.125000 0.500000
vt 0.375000 0.500000
vt 0.375000 0.750000
vt 0.125000 0.750000
vt 0.625000 0.500000
vt 0.528999 0.500000
vt 0.375000 0.250000
vt 0.375000 0.000000
vt 0.528999 0.533428
vt 0.526892 0.750000
vt 0.622920 0.750000
vt 0.531076 0.750000
vt 0.531081 0.750000
vt 0.622916 0.750000
vt 0.531050 0.500000
vt 0.622943 0.500000
vt 0.531052 0.500000
vt 0.531057 0.500000
vt 0.622946 0.500000
vt 0.622936 0.500000
vt 0.531067 0.500000
vt 0.622936 0.500000
vt 0.622927 0.500000
vt 0.531074 0.500000
vt 0.622916 0.750000
vt 0.531081 0.750000
vt 0.531085 0.750000
vt 0.622911 0.750000
vt 0.526892 0.750000
vt 0.528999 0.889893
vt 0.528999 1.000000
vt 0.375000 1.000000
vt 0.624140 0.500000
vt 0.529916 0.500000
vt 0.530182 0.500000
vt 0.623723 0.500000
vt 0.622946 0.500000
vt 0.622899 0.750000
vt 0.531094 0.750000
vt 0.531062 0.500000
vt 0.622932 0.500000
vt 0.622916 0.500000
vt 0.531076 0.500000
vt 0.622915 0.750000
vt 0.531076 0.750000
vt 0.622925 0.750000
vt 0.531070 0.750000
vt 0.531063 0.750000
vt 0.622930 0.750000
vt 0.622930 0.750000
vt 0.531064 0.750000
vt 0.622928 0.750000
vt 0.531066 0.750000
vt 0.531067 0.500000
vt 0.622929 0.500000
vt 0.622932 0.500000
vt 0.531062 0.500000
vt 0.531062 0.500000
vt 0.622934 0.500000
vt 0.622935 0.750000
vt 0.531058 0.750000
vt 0.531066 0.750000
vt 0.622928 0.750000
vt 0.531052 0.500000
vt 0.622912 0.750000
vt 0.531085 0.750000
vt 0.531058 0.750000
vt 0.622932 0.750000
vt 0.622935 0.750000
vt 0.622910 0.750000
vt 0.531081 0.750000
vt 0.625000 0.898705
vt 0.625000 1.000000
vt 0.000000 0.000000
s 0
usemtl Material
f 9/1/1 6/2/1 4/3/1 10/4/1
f 5/5/2 2/6/2 3/7/2 7/8/2
f 10/4/3 4/3/3 1/9/3 8/10/3
f 5/11/3 10/4/3 8/10/3 2/6/3
f 7/12/1 9/1/1 10/4/1 5/11/1
f 2/6/4 8/10/4 13/13/4 16/14/4 3/7/4
f 31/15/5 29/16/5 21/17/5 22/18/5
f 19/19/3 17/20/3 54/20/3 56/21/3
f 32/22/3 30/23/3 23/24/3 24/25/3
f 24/25/3 23/26/3 34/27/3 36/28/3
f 22/29/5 21/30/5 33/31/5 35/32/5
f 3/7/6 16/33/6 15/34/6 9/35/6 7/36/6
f 8/10/7 1/9/7 28/37/7 26/38/7
f 26/39/8 28/40/8 30/41/8 32/22/8
f 25/42/5 27/43/5 29/16/5 31/15/5
f 44/44/3 43/45/3 37/46/3 39/47/3
f 39/47/9 37/46/9 38/48/9 40/49/9
f 45/50/5 47/51/5 41/52/5 42/53/5
f 42/54/5 41/55/5 40/49/5 38/48/5
f 49/56/5 51/57/5 47/51/5 45/50/5
f 48/58/3 46/59/3 43/60/3 44/61/3
f 52/62/3 50/63/3 46/59/3 48/58/3
f 53/64/5 55/65/5 51/66/5 49/67/5
f 56/68/3 54/20/3 50/63/3 52/62/3
f 35/69/5 33/70/5 20/71/5 18/72/5
f 36/28/3 34/27/3 17/20/3 19/19/3
f 18/72/5 20/71/5 55/65/5 53/73/5
f 11/74/10 14/75/10 27/43/10 25/42/10
f 15/34/11 14/75/11 11/74/11 12/76/11 6/77/11 9/35/11
f 6/77/12 12/76/12 11/74/12 1/9/12 4/3/12
f 11/74/13 25/42/13 28/37/13 1/9/13
f 44/78/14 39/78/14 40/78/14
f 37/78/9 38/78/9 39/78/9
f 44/78/15 40/78/15 41/78/15
f 41/78/5 40/78/5 38/78/5
f 52/78/16 51/78/16 55/78/16
f 43/78/17 47/78/17 48/78/17
f 42/78/18 47/78/18 43/78/18
f 43/78/19 44/78/19 41/78/19
f 47/78/5 41/78/5 42/78/5
f 42/78/20 41/78/20 43/78/20
f 43/78/21 41/78/21 38/78/21
f 47/78/22 51/78/22 48/78/22
f 47/78/23 48/78/23 46/78/23
f 17/78/24 18/78/24 53/78/24
f 38/78/9 40/78/9 39/78/9
f 45/78/25 50/78/25 47/78/25
f 45/78/23 47/78/23 46/78/23
f 46/78/26 47/78/26 42/78/26
f 49/78/27 55/78/27 52/78/27
f 49/78/28 52/78/28 50/78/28
f 50/78/29 52/78/29 51/78/29
f 55/78/5 51/78/5 49/78/5
f 49/78/28 51/78/28 50/78/28
f 55/78/30 56/78/30 52/78/30
f 55/78/31 20/78/31 56/78/31
f 55/78/32 56/78/32 54/78/32
f 54/78/33 56/78/33 53/78/33
f 53/78/33 56/78/33 55/78/33
f 44/78/5 43/78/5 48/78/5
f 54/78/34 53/78/34 49/78/34
f 54/78/35 17/78/35 55/78/35
f 54/78/33 55/78/33 53/78/33
f 53/78/5 55/78/5 49/78/5
f 17/78/36 19/78/36 20/78/36
f 18/78/37 20/78/37 17/78/37
f 50/78/38 51/78/38 47/78/38
f 42/78/39 38/78/39 43/78/39
f 43/78/40 38/78/40 37/78/40
f 45/78/41 42/78/41 46/78/41
f 46/78/42 42/78/42 43/78/42
f 49/78/43 45/78/43 50/78/43
f 50/78/44 45/78/44 46/78/44
f 50/78/45 54/78/45 49/78/45
f 51/78/46 52/78/46 48/78/46
f 54/78/47 17/78/47 53/78/47
f 20/78/48 19/78/48 56/78/48
f 17/78/35 20/78/35 55/78/35
f 56/78/49 55/78/49 17/78/49
f 17/78/50 56/78/50 20/78/50
f 20/78/51 33/78/51 19/78/51
f 23/78/52 22/78/52 35/78/52
f 33/78/53 35/78/53 36/78/53
f 48/78/54 44/78/54 41/78/54
f 34/78/55 23/78/55 35/78/55
f 35/78/53 34/78/53 36/78/53
f 31/78/56 22/78/56 23/78/56
f 31/78/57 23/78/57 30/78/57
f 30/78/58 28/78/58 31/78/58
f 33/78/59 36/78/59 19/78/59
f 25/78/60 28/78/60 1/78/60
f 11/78/61 25/78/61 1/78/61
f 28/78/62 25/78/62 31/78/62
f 48/78/63 41/78/63 47/78/63
f 46/78/5 48/78/5 43/78/5
f 51/78/28 52/78/28 49/78/28
f 17/78/64 56/78/64 53/78/64
f 17/78/65 55/78/65 53/78/65
f 54/78/66 55/78/66 49/78/66
f 18/78/5 35/78/5 20/78/5
f 33/78/67 21/78/67 36/78/67
f 35/78/68 23/78/68 33/78/68
f 23/78/69 21/78/69 33/78/69
f 32/78/70 24/78/70 21/78/70
f 21/78/71 24/78/71 23/78/71
f 32/78/72 21/78/72 29/78/72
f 29/78/5 21/78/5 22/78/5
f 22/78/71 21/78/71 23/78/71
f 34/78/73 35/78/73 18/78/73
f 29/78/74 32/78/74 30/78/74
f 31/78/74 29/78/74 30/78/74
f 30/78/75 29/78/75 22/78/75
f 17/78/76 34/78/76 18/78/76
f 21/78/77 24/78/77 36/78/77
f 31/78/78 22/78/78 30/78/78
f 30/78/79 22/78/79 23/78/79
f 12/78/80 11/78/80 1/78/80
f 4/78/81 6/78/81 12/78/81
f 1/78/81 4/78/81 12/78/81
f 35/78/5 33/78/5 20/78/5
